<mxfile host="app.diagrams.net" agent="Mozilla/5.0 (Windows NT 10.0; Win64; x64) AppleWebKit/537.36 (KHTML, like Gecko) Chrome/136.0.0.0 Safari/537.36" version="27.0.3">
  <diagram name="Page-1" id="Ey3xGbDULwCW5sA_dV77">
    <mxGraphModel dx="1603" dy="1211" grid="0" gridSize="10" guides="1" tooltips="1" connect="1" arrows="1" fold="1" page="0" pageScale="1" pageWidth="850" pageHeight="1100" background="light-dark(#FFFFFF,#FFFFFF)" math="0" shadow="0">
      <root>
        <mxCell id="0" />
        <mxCell id="1" parent="0" />
        <mxCell id="n9jPN7Psreh2ucEp5mYO-1" value="" style="image;html=1;image=img/lib/clip_art/computers/Database_128x128.png" vertex="1" parent="1">
          <mxGeometry x="306.5" y="286" width="43" height="40" as="geometry" />
        </mxCell>
        <mxCell id="n9jPN7Psreh2ucEp5mYO-2" value="" style="image;html=1;image=img/lib/clip_art/computers/Database_128x128.png" vertex="1" parent="1">
          <mxGeometry x="683" y="-47.5" width="36" height="48" as="geometry" />
        </mxCell>
        <mxCell id="n9jPN7Psreh2ucEp5mYO-3" value="" style="image;html=1;image=img/lib/clip_art/computers/Database_128x128.png" vertex="1" parent="1">
          <mxGeometry x="300.25" y="-57" width="55.5" height="41" as="geometry" />
        </mxCell>
        <mxCell id="n9jPN7Psreh2ucEp5mYO-6" value="" style="shape=image;verticalLabelPosition=bottom;labelBackgroundColor=default;verticalAlign=top;aspect=fixed;imageAspect=0;image=data:image/png,iVBORw0KGgoAAAANSUhEUgAAAgAAAAIACAYAAAD0eNT6AAAAAXNSR0IArs4c6QAAIABJREFUeAHt3XGkrfl97/GviIgRMSJijIiIqIhRMUZERERURFRFNFFtxclZz37W6TGJqKqoqomo+0dV1JU/RlRE/qiqK66quK6oiCsqqiJGRdW4qiJGxDUiosbvevY+ZyaZzFnnt87+ref3fdbvNWznzFm//VvP+nzfz/f7fp6999oRnf4rn42Hy0XcKFN8sczx9TLHd8scPypzlEE+flLm+H6Z4h/KHE+XKT5TbsVbO5XD054wgXIRv1mm+POyi78pu/h2meM/BmG8lCl+Vub4t7KPb5ZdfKXM8SdlF+8+Ydy2loAEMiZQ5nhLmeJzZb5sgqMM+mNf5zPlIv6i3IwnMtbQMd0/gXI7Xncpt7v4n3cG4LEMjLD+uTLFVxc5un+iVkhAAptNoMzxxrKPL5Upfj7MlU+LOxnL3YGLeNdmCz/YgZen4jVlH39Y5ngO50fdyVuk97cGw8XLlcB5J1B+L15f5vjzMsXzGuJRDfGlK8ApXri8dfwH8bbzpmW7r648Fa8uu5jKNNCt/RaC+/I99vGdso/3b5cERy4BCVwmUKb49TLHDw3+Bxz8L2+OV3dPfhdeuRIou3hDmeI7OG/E+RX3X1ykKlelHY0EJFCVQNnFR8t8+c0/L13Jvnyg+f8Hy2YXf1meildVFcKikyZwKbmu+h+M4/ud/1P8Y7kRD5+0gDaXgATaJnD5Xb73O7k9ft2m+b/aVs1uxyZQ5viQq/6mV/2/ek7s4tnlG4ePrY31EpBAhwTKFL+tKZ64Kd6Vp318pUOJPWVElH28s8y+r2Wlc/375Ua8FngSkEDiBMo+nnDbf6Xhf1cC5vhsYiTO8tCW29JD/Rz/S6z96hX6eo99/Sxh8qIkcA4JlBvxSJmGehOfns3wF5/7hTLFB8+BoS28huV7L+68kc8v1sDf1xCBXfzZFhhxjBIYLoEyxd+tdDtQs/3VZvvD5efPh4Ouwwu+8zP+GPxVBtfIZPlx2Mc6lN1TSkAC90rg8uuhy8+q92kKazSeLTzHk/eqj39vk0CZ46EyxY9xvvqXuV46//bx922qaRcJSKBJAq7+OzbEl6TLXYAmNN97k7KLLxj+CVj/VLz33lXyiAQksFoC5VY8pikmaIpXIuAuwInIv3yznzl+ivUErE/xrROV2bYSkMAxCdz5TX4v3aJ76YrUv62fxfePqZ219QmUOWbDP8Hwv3tO+a2Z9fBaKYFTJVDmyzfqMOzvNqbefz4Zj56q1iPve+dXNuO8N993n3+Kz4zMo9cuge4JLN+R66oo0VXRVXPUGBufGcub0Pgtlsk438c3G5fZdhKQwDEJeMvfZE1xEYAp/vcxNbT2/gnc+b0Wrv7vXn3n+POF5TeN3r96VkhAAidJoFzE190BSCcBPzlJsQfe1Hf/p2P8roy9b2AsvXQJ9E2gzPFdApCyOT7Ul4zzevYyx5dxnpDzKT52XqR5NRLYUAJljh9qjAkb4xzv2BBG6Q+17OPvcZ6Q84u4nR4eByiBc0ygPBWvLt797+6tyFx/+t0ATU+5MsU/EYCUAvD5poW2mQQkUJfA5S//yfHNQLmGb45MfreuilbVJFDm+HcCkFAA9vGlmvpZIwEJNE6gPBmPaooJm+IiIFN8snG5h97Oe12k5fzpocH04iXQKwECkLQpXgnA7/fi4hyflwAkZX0KAnCOJ5zXlD8BApC0KRKA5icPAUjKOgFozroNJVCVAAFI2hQXAdiHOwBVFNctIgBJWScAdQBbJYHWCRCApE2RALRGPQhAUtYJQHPWbSiBqgQIQNKmuAjALvwUQBXFdYsIQFLWCUAdwFZJoHUCBCBpU1wEYCYALXknAElZJwAtMbeXBOoTIABJmyIBqIe4ciUBSMo6Aagk2DIJNE6AACRtiosAXMTvNC730NsRgKSsE4Chz0svvmMCBCBpUyQAzc8KApCUdQLQnHUbSqAqAQKQtCkSgCp+j1lEAJKyTgCOwdhaCbRLgAAkbYpXAvCJdpW2EwFIyjoBcHJKoE8CBCBpUyQAzU8IApCUdQLQnHUbSqAqAQKQtCkSgCp+j1lEAJKyTgCOwdhaCbRLgAAkbYoEoB3kd3YiAElZJwDNWbehBKoSIABJmyIBqOL3mEUEICnrBOAYjK2VQLsECEDSprgIwBS/3a7SdiIASVknAE5OCfRJgAAkbYoEoPkJQQCSsk4AmrNuQwlUJUAAkjbFKwH4WFURLapKgAAkZZ0AVPFrkQSaJ0AAkjZFAtCe9TmeLUuuPnJlQACas25DCVQlQAASD4R9uANQRXHdIncAkrJOAOoAtkoCrRMgAEmb4nKVuouPtq73yPsRgKSsE4CRT0uvvWcCBCBpUyQAzU8LApCUdQLQnHUbSqAqAQKQtClefZ3aHYAqiusWEYCkrBOAOoCtkkDrBAhA0qZIAFqjHgQgKesEoDnrNpRAVQIEIGlTXATgIn6rqogWVSVAAJKyTgCq+LVIAs0TIABJmyIBaM+6HwPM9eN/V3e5lne8fLp5sW0oAQncPwECQADuT8l5rHAHICnrBOA8TjCvYnsJEICkTfHqDsBvbo+ovEdMAJKyTgDynjSO7LwTIABJmyIBaH7iEYCkrBOA5qzbUAJVCRCApE2RAFTxe8wiApCUdQJwDMbWSqBdAgQgaVNcBGAfH2lXaTsRgKSsEwAnpwT6JEAAkjZFAtD8hCAASVknAM1Zt6EEqhIgAEmb4iIAkzsAVRBXLiIASVknAJUEWyaBxgkQgKRNkQA0Jj28E+DCVMYPAtCcdRtKoCoBApC0KS6NehcfriqiRVUJuAOQlHUCUMWvRRJongABSNoUFwHYE4CWwBOApKwTgJaY20sC9QkQgKRNkQDUQ1y5kgAkZZ0AVBJsmQQaJ0AAkjbFRQBuxocal3vo7QhAUtYJwNDnpRffMQECkLQpEoDmZwUBSMo6AWjOug0lUJUAAUjaFBcBmN0BqIK4chEBSMo6Aagk2DIJNE6AACRtiosAXMRvNC730NsRgKSsE4Chz0svvmMCBCBpUyQAzc8KApCUdQLQnHUbSqAqAQKQtCkSgCp+j1lEAJKyTgCOwdhaCbRLgAAkbYoEoB3kd3YiAElZJwDNWbehBKoSIABJm+IiAFN8sKqIFlUlQACSsk4Aqvi1SALNEyAASZsiAWjP+hzPpnwv/KXWI38QgOas21ACVQkQgMTN1x2AKoZrF7kDkJR1AlCLsHUSaJsAAUjaFN0BaAt6+G2Aae8yEIDmrNtQAlUJEAACUAXKGSxyByAp6wTgDM4uL2GTCRCApE3x6g7ABzYJVdKDJgBJWScASc8Yh3X2CRCApE1xEYBdvP/sAVzxBRKApKwTgBXPAk8lgV9IgAAkbYoE4BcobfNXApCUdQLQBnC7SODYBAhA0qa4CMDeHYBjeT60ngAkZZ0AHMLWYxI4XQIEIGlTJADNoScASVknAM1Zt6EEqhIgAEmb4iIAc7yvqogWVSVAAJKyTgCq+LVIAs0TIABJmyIBaM+6dwLM+Y6DBKA56zaUQFUCBIAAVIFyBovcAUjKOgE4g7PLS9hkAgQgaVNc7gB8Kt67SaiSHjQBSMo6AUh6xjiss0+AACRtigSg+blHAJKyTgCas25DCVQlQACSNsVFAC7cAaiCuHIRAUjKOgGoJNgyCTROgAAkbYqLAEzxnsblHno7ApCUdQIw9HnpxXdMgAAkbYoEoPlZQQCSsk4AmrNuQwlUJUAAkjZFAlDF7zGLCEBS1gnAMRhbK4F2CRCApE2RALSD/M5OBCAp6wSgOes2lEBVAgQgaVNcBOBWvLuqiBZVJUAAkrJOAKr4tUgCzRMgAEmb4iIAOwLQEngCkJR1AtASc3tJoD4BApC0KRKAeogrVxKApKwTgEqCLZNA4wQIQNKmuAjAzXiicbmH3o4AJGWdAAx9XnrxHRMgAEmbIgFoflYQgKSsE4DmrNtQAlUJEICkTXERgL07AFUQVy4iAElZJwCVBFsmgcYJEICkTXERgDkeb1zuobcjAElZJwBDn5defMcECEDSpkgAmp8VBCAp6wSgOes2lEBVAgQgaVMkAFX8HrOIACRlnQAcg7G1EmiXAAFI2hQJQDvI7+xEAJKyTgCas25DCVQlQACSNsVFAG7Eu6qKaFFVAgQgKesEoIpfiyTQPAECkLQpLgJwQQBaAk8AkrJOAFpibi8J1CdAAJI2RQJQD3HlSgKQlHUCUEmwZRJonAABSNoUFwGY4tcbl3vo7QhAUtYJwNDnpRffMQECkLQpEoDmZwUBSMo6AWjOug0lUJUAAUjaFAlAFb/HLCIASVknAMdgbK0E2iVAAJI2xUUAbsVj7SptJwKQlHUC4OSUQJ8ECEDSpkgAmp8QBCAp6wSgOes2lEBVAgQgaVNcBGDnDkAVxJWLCEBS1glAJcGWSaBxAgQgaVMkAI1JjyAASVknAM1Zt6EEqhIgAEmboi8BVPF7zCICkJR1AnAMxtZKoF0CBCBpUyQA7SC/sxMBSMo6AWjOug0lUJUAAUjaFBcB2Mc7q4poUVUCBCAp6wSgil+LJNA8AQKQtCkSgPasz/FsWXL1kSsDAtCcdRtKoCoBApB4ILgDUMVw7SJ3AJKyTgBqEbZOAm0TIABJm+LVVeo72lZ77N0IQFLWCcDYJ6ZX3y8BApC0KRKA5icFAUjKOgFozroNJVCVAAFI2hQJQBW/xywiAElZJwDHYGytBNolQACSNsVFAC7i19pV2k4EICnrBMDJKYE+CRCApE2RADQ/IQhAUtYJQHPWbSiBqgQIQNKmuAjALt5eVUSLqhIgAElZJwBV/FokgeYJEICkTZEAtGfd+wDk+vn/hfHlgwA0Z92GEqhKgAAQgCpQzmCROwBJWScAZ3B2eQmbTIAAJG2Ky5XRH8TbNglV0oMmAElZJwBJzxiHdfYJEICkTZEAND/3CEBS1glAc9ZtKIGqBAhA0qa4CMBNdwCqIK5cRACSsk4AKgm2TAKNEyAASZsiAWhMegQBSMo6AWjOug0lUJUAAUjaFH0JoIrfYxYRgKSsE4BjMLZWAu0SIABJm+IiALfire0qbScCkJR1AuDklECfBAhA0qZIAJqfEAQgKesEoDnrNpRAVQIEIGlTJABV/B6ziAAkZZ0AHIOxtRJolwABSNoUCUA7yO/sRACSsk4AmrNuQwlUJUAAkjbFRQDmeEtVES2qSoAAJGWdAFTxa5EEmidAAJI2RQLQnnW/C8DvAmhOlQ0lsOEECAAB2DC+Rx26OwBJWXcH4CiOLZZAswQIQNKmuNwBmOLNzQptI28EdHVXKd9dAALg7JRAnwQIAAHoQ976z+oOQFLWCcD6J4NnlMCSAAFI2hSXq7Un41GUtkuAACRlnQC0g9xOEjgmAQKQtCkuAnCTABzD8v3WEoCkrBOA+6HrcQmcJgECkLQpEoDmwBOApKwTgOas21ACVQkQgKRN0ZcAqvg9ZhEBSMo6ATgGY2sl0C4BApC0KRKAdpDf2YkAJGWdADRn3YYSqEqAACRtiosA3IhHqopoUVUCBCAp6wSgil+LJNA8AQKQtCkuAnCbALQEngAkZZ0AtMTcXhKoT4AAJG2KBKAe4sqVBCAp6wSgkmDLJNA4AQKQtCkuAnAr3tS43ENvRwCSsk4Ahj4vvfiOCRCApE2RADQ/KwhAUtYJQHPWbSiBqgQIQNKmSACq+D1mEQFIyjoBOAZjayXQLgECkLQpLgIwxxvbVdpOBCAp6wTAySmBPgkQgKRNkQA0PyEIQFLWCUBz1m0ogaoECEDSpkgAqvg9ZhEBSMo6ATgGY2sl0C4BApC0KRKAdpDf2YkAJGWdADRn3YYSqEqAACRtiosA7OINVUW0qCoBApCUdQJQxa9FEmieAAFI2hQXAfhsPNy84ANvSACSsk4ABj4rvfSuCRCApE2RADQ/LwhAUtYJQHPWbSiBqgQIQNKmuAjADXcAqiCuXEQAkrJOACoJtkwCjRMgAEmbIgFoTHoEAUjKOgFozroNJVCVAAFI2hR9CaCK32MWEYCkrBOAYzC2VgLtEiAASZviIgC/F69vV2k7EYCkrBMAJ6cE+iRAAJI2RQLQ/IQgAElZJwDNWbehBKoSIABJm+IiAJ92B6AK4spFBCAp6wSgkmDLJNA4AQKQtCkSgMak+ybAsjCV8YMANGfdhhKoSoAAJG2KS6O+Ha+rKqJFVQm4A5CUdQJQxa9FEmieAAFI2hQJQHvW53g25RVwxqvyNY+JADRn3YYSqEqAABCAKlDOYJE7AElZJwBncHZ5CZtMgAAkbYpXV2APbRKqpAdNAJKyTgCSnjEO6+wTIABJmyIBaH7uEYCkrBOA5qzbUAJVCRCApE2RAFTxe8wiApCUdQJwDMbWSqBdAgQgaVNcBOBGvLZdpe1EAJKyTgCcnBLokwABSNoUCUDzE4IAJGWdADRn3YYSqEqAACRtiosAPBWvqSqiRVUJEICkrBOAKn4tkkDzBAhA0qZIANqz7n0AvBNgc6psKIENJ0AAEgvAx90BaHlquQOQlHV3AFpibi8J1CdAAJI2RXcA6iGuXEkAkrJOACoJtkwCjRMgAEmbIgFoTLpfBpT2bZAJQHPWbSiBqgQIQGIB+EC8uqqIFlUl4A5AUtYJQBW/FkmgeQIEIGlTXO4AEICmvBOApKwTgKac20wC1QkQgKRN8epLAO4AVJN8/4UEICnrBOD+8FohgVMkQACSNsUrAXjVKWo+6p4EICnrBGDUU9Lr7p0AAUjaFAlA81ODACRlnQA0Z92GEqhKgAAkbYoEoIrfYxYRgKSsE4BjMLZWAu0SIABJmyIBaAf5nZ0IQFLWCUBz1m0ogaoECEDSpjhHqSqgRdUJEICkrBOAaoYtlEDTBAhA0qZIAJpyvmxGAJKyTgCas25DCVQlQACSNkUCUMXvMYsIQFLWCcAxGFsrgXYJEIC0TfGFdlW205IAAUjL+tMIlYAEOiRAANI2RQLQ+HwgAGlZJwCNWbedBKoSIABJm+IcBKCK4PpFBCAp674EUA+xlRJomQABSNoUCUBLzC/3IgBJWScAzVm3oQSqEiAASZsiAaji95hFBCAp6wTgGIytlUC7BAhA0qY4x3+1q7KdlgQIQFLWCYATVAJ9EiAASZuiHwNsfkKUKX5UlndY9JEtA98E2Jx2G0qgIgECkHgg3I5HKkpoSWUCBn9S1nfxlcoSWiYBCbRMgAAkbYpXV6mPt6z1yHuVKd5MANKy/o2R2fTaJdAtgXIzHtUYkzbGKT7WDYwze+JyEb+J86Scz/EvZ4ablyOBbSTgDkDapljKFF/eBkX5j7Ls40sEIC3rPysfj9fkp8gRSuDMEiAAaZvi8o1az50Zbt1eTpniPwlAYtb38eFucHhiCYyagC8BJG6Ky/cBTPHBUdls9brLPj5i+Kfn/K9a1ds+EpBAZQLuAKRvjL4+WsnyKy0rT8WryhQ/IADpOf9x+XS8/pVq6N8kIIETJUAAkjfG5S7ALqYTlf/sty0XccPw3wDjV5z/5dkD6QVKIFMCBGADzXGKn5Q53pKJmy0cy+WP/k3xYwKwAcavfuz1hTLH+7bAlmOUwFkkQAA20hyn+F75QLz6LKBb4UWUG/HaMsf3Df+N8H0lAMv3vCzCRnZXOEc8hQSCAGyoQe7ibyB7/wTK7XhdmeIfDP8NsX1XAK7+/P7Sl+5faSskIIFrJUAANtck/6Xcirdeq+hn/MlLNmWOfzX8N8f1L/9+guX3NtyKd58xql6aBPonQAA22SiX7wl4sj89uY6gXMQflTn+n+G/SaZ/WQDu3hHYxRdyUeZoJHBGCRCADTfL5cfbdvHRMsdDZ4Tk0S/l8uf8L+IZg3/DLN8d+K/857PF22IffV74BAncNwECcDZN89tlF18oF/E75Ua8615ScOeb4x5aHr/8Wvny9fLfi9eXz8bD5UY8fPnnHG8sy8eteNPlx+145JKT5fdGPBmP3vnFOm+5vN2+3HL/g3hbuRlvu/xzF28vF/FrZY53XH7s453lVjxWdvHY5Z9T/Hq5iHfdOcbHyxyPl308UXbx7uWWb5niPZcfn4r3Lt8Rfvmxj/eXXbx/eVOkchGfKBdxu1zE58s+vlmm+JnBfzYMv/JdgJek4KeX39txEX+6/GhsuYjfKlN8wIcMujKw9Kqlx139Xp1tXYwRgGGa5/2aq8dfGjSykAUGMPCgDPyg7OPzixTc9wq89wICQABcQWMAAxjAwEkYeKbs45O95/w9n58AnKToD2qOPs9VBwYwgIHzY+Dfyi5+d3lr8nsO4x4PEAACwPwxgAEMYGAFBqb4x+V7rXrM+ld8TgKwQtHPz2ZdoagpBjCAgQdj4NnlG6RfcSCv/Y9+HTABYP4YwAAGMLAiA1M8n+JXvbsDsGLRH8wWWbbcMIABDJwfAz9ZfnR67Yv+X3o+AkAAmD8GMIABDHRh4AfL+7D80lBe838IQJeis/nzs3k1VVMMYOB4BpY3NOv10wEEgAAwfwxgAAMY6MjALm6ueeH/4nMRgI5FZ8vH27LMZIYBDJwbA7t4tstdAAJAAJg/BjCAAQx0ZmAfv//ilflafyEAnYt+bibr9bg6wwAGMHA8A1N8a625/+LzEAACwPwxgAEMYKAzA1O8sPpPBBCAzkVnysebssxkhgEMnCMDa38ZgAAQAOaPAQxgAAMJGJjib1+8Pb/GXwhAgqKfo8l6Ta7QMIABDBzHwBQ/WGPuv/gcBIAAMH8MYAADGEjBwHMvDuc1/kIAUhT9OEtk1fLCAAYwcI4MvLDq+wEQAALA/DGAAQxgIAkDu3jDGhf/l89BAJIUnc2fo817TbjGAAaOY+DJeJQAgOY4aOQlLwxgAAPbZ4AAuCp3Ow4DGMAABgZkgAAMWHTmvn1zV0M1xAAGrssAASAAzB8DGMAABgZkgAAMWPTrWqPPd+WBAQxgYPsMEAACwPwxgAEMYGBABgjAgEVn7ts3dzVUQwxg4LoMEAACwPwxgAEMYGBABgjAgEW/rjX6fFceGMAABrbPAAEgAMwfAxjAAAYGZIAADFh05r59c1dDNcQABq7LAAEgAMwfAxjAAAYGZIAADFj061qjz3flgQEMYGD7DBAAAsD8MYABDGBgQAYIwIBFZ+7bN3c1VEMMYOC6DBAAAsD8MYABDGBgQAYIwIBFv641+nxXHhjAAAa2zwABIADMHwMYwAAGBmSAAAxYdOa+fXNXQzXEAAauywABIADMHwMYwAAGBmSAAAxY9Otao8935YEBDGBg+wwQAALA/DGAAQxgYEAGCMCARWfu2zd3NVRDDGDgugwQAALA/DGAAQxgYEAGCMCARb+uNfp8Vx4YwAAGts8AASAAzB8DGMAABgZkgAAMWHTmvn1zV0M1xAAGrssAASAAzB8DGMAABgZkgAAMWPTrWqPPd+WBAQxgYPsMEAACwPwxgAEMYGBABgjAgEVn7ts3dzVUQwxg4LoMEAACwPwxgAEMYGBABgjAgEW/rjX6fFceGMAABrbPAAEgAMwfAxjAAAYGZIAADFh05r59c1dDNcQABq7LAAEgAMwfAxjAAAYGZIAADFj061qjz3flgQEMYGD7DBAAAsD8MYABDGBgQAYIwIBFZ+7bN3c1VEMMYOC6DBAAAsD8MYABDGBgQAYIwIBFv641+nxXHhjAAAa2zwABIADMHwMYwAAGBmSAAAxYdOa+fXNXQzXEAAauywABIADMHwMYwAAGBmSAAAxY9Otao8935YEBDGBg+wwQAALA/DGAAQxgYEAGCMCARWfu2zd3NVRDDGDgugwQAALA/DGAAQxgYEAGCMCARb+uNfp8Vx4YwAAGts8AASAAzB8DGMAABgZkgAAMWHTmvn1zV0M1xAAGrssAASAAzB8DGMAABgZkgAAMWPTrWqPPd+WBAQxgYPsMEAACwPwxgAEMYGBABgjAgEVn7ts3dzVUQwxg4LoMEAACwPwxgAEMYGBABgjAgEW/rjX6fFceGMAABrbPAAEgAMwfAxjAAAYGZIAADFh05r59c1dDNcQABq7LAAEgAMwfAxjAAAYGZIAADFj061qjz3flgQEMYGD7DBAAAsD8MYABDGBgQAYIwIBFZ+7bN3c1VEMMYOC6DBAAAsD8MYABDGBgQAYIwIBFv641+nxXHhjAAAa2zwABIADMHwMYwAAGBmSAAAxYdOa+fXNXQzXEAAauywABIADMHwMYwAAGBmSAAAxY9Otao8935YEBDGBg+wwQAALA/DGAAQxgYEAGCMCARWfu2zd3NVRDDGDgugwQAALA/DGAAQxgYEAGCMCARb+uNfp8Vx4YwAAGts8AASAAzB8DGMAABgZkgAAMWHTmvn1zV0M1xAAGrssAASAAzB8DGMAABgZkgAAMWPTrWqPPd+WBAQxgYPsMEAACwPwxgAEMYGBABgjAgEVn7ts3dzVUQwxg4LoMEAACwPwxgAEMYGBABgjAgEW/rjX6fFceGMAABrbPAAEgAMwfAxjAAAYGZIAADFh05r59c1dDNcQABq7LwKoCcDMeZZmEAwMYOGMGflrm+Pcyx7fLRfxdmeOvyj4+v8mPOZ4u+/j7Msd3yxz/ecY1G1ckbsQjsdZ/5UkC4CQy/DBwRgxM8UKZ4p/KHH9SdvHYWr20x/OUp+I15SJ+o1zEfy9z/F8cnwHH7gCcQRGvexvI5497BaD2D1r7Z8suniy3V7yC6jH1DzxnuRHvKnP8eZnjeTKw0TniDsBGC6dxP2jj9nnYeXAGpvjPso9b5QPx6gOzcaiHyhxvLFN8sUzxcyKwsXmy6h0AXwJ48MajacsOA/0YmOInZY7PlTkeGmq6H/FiyxxvKVN8tczxAhHYiAgQgI0USvPv1/xlP3b2U3yv3Io3HTELh15a5viQLwtsZK4QgI0UyhAaewipf5/6T/ENV/3H+0zZxzv95MAGZgsB2ECRNP8+zV/uY+c+xdPlqXjV8ePPZywJLHdNynL3xHkojaNjAAARZElEQVSU9zwiAATACYoBDLyMgYv4C2P8+gmU2/G6Ml2+j0DeITiyoPgpgJed+CPD4LVrUhgoZYpvXH/02eFuAuVGPFKm+BHJTDhr3AFIWBRN2CDGQC8GnlmuWu8OL3+2SaDcjCfKHD8jAcnmDQFIVhCNv1fj97zY+3GZ4s1tRp5dXp5AuYhPEIBk84YAJCuIJmwQY6APA/v45MuHlv9vm0CZLn8/Qp/6Oq9+NXcCQABYOQYwEN/3Hf9th/0r7Xb5ZkG+FPCrg7iXnBAAzV/zx8DwDOziw680sPxb+wTu/P6APEOw1/DN8LwEQPMfvvlnOBEdQ7+BMMX/aT/m7HivBJY3VvJTAUnmDgFIUggDoN8AkP3Y2d+MJ+41rPz7aRK4/IVKzrv+5533ASAA7gBgYGAGnj3NiLProQTu/AZBvzSotwS5A6D5D9z8+xt47wYw+vPvvePfoUF9ysfKLr6t93SePwSgcwFGb8BePwnpycCn4r2nHHL2vncCZY4/JgCd5w8B6FyAns3Pcxu+YzPw3L3Hk0dOnUCZ4x0EoPP8IQCdCzB2AzaA1b8fAxfx16cecvY/nECZ46ckoOMMIgAdw9f8+zV/2cv+Im4fHk8ePXUCZY5nCEDHGUQAOoZvCBlCGOjHwBQfO/WAs//hBJbfvEgAOs4gAtAxfM2/X/OXvezneN/h8eTRUydQ5vgyAeg4gwhAx/ANIUMIA/0Y2MXbTz3g7H84gbKLPyMAHWfQqgJwMx5V7I7FNmz6DRvZZ8z+jYfHk0dPnUDZxWQmdJwJ3gmwY/iGQsah4JhG4XIXbzj1gLP/4QTKFJ8kAB1n0Kp3AJ50BwDsHWEfZbB5nXUSRwAOT+cVHiUAnfshAehcAM26rlnLSU6tGSAAK4z4w09BADrPHwLQuQCtm5r9DEoM1DFAAA5P5xUeJQCd5w8B6FwAzbquWctJTq0ZIAArjPjDT0EAOs8fAtC5AK2bmv0MSgzUMUAADk/nFR4lAJ3nDwHoXADNuq5Zy0lOrRkgACuM+MNPQQA6zx8C0LkArZua/QxKDNQxQAAOT+cVHiUAnecPAehcAM26rlnLSU6tGSAAK4z4w09BADrPHwLQuQCtm5r9DEoM1DFAAA5P5xUeJQCd5w8B6FwAzbquWctJTq0ZIAArjPjDT0EAOs8fAtC5AK2bmv0MSgzUMUAADk/nFR4lAJ3nDwHoXADNuq5Zy0lOrRkgACuM+MNPQQA6zx8C0LkArZua/QxKDNQxQAAOT+cVHiUAnecPAehcAM26rlnLSU6tGSAAK4z4w09BADrPHwLQuQCtm5r9DEoM1DFAAA5P5xUeJQCd5w8B6FwAzbquWctJTq0ZIAArjPjDT0EAOs8fAtC5AK2bmv0MSgzUMUAADk/nFR4lAJ3nDwHoXADNuq5Zy0lOrRkgACuM+MNPQQA6zx8C0LkArZua/QxKDNQxQAAOT+cVHiUAnecPAehcAM26rlnLSU6tGSAAK4z4w09BADrPHwLQuQCtm5r9DEoM1DFAAA5P5xUeJQCd5w8B6FwAzbquWctJTq0ZIAArjPjDT0EAOs8fAtC5AK2bmv0MSgzUMUAADk/nFR4lAJ3nDwHoXADNuq5Zy0lOrRkgACuM+MNPQQA6zx8C0LkArZua/QxKDNQxQAAOT+cVHiUAnecPAehcAM26rlnLSU6tGSAAK4z4w09BADrPHwLQuQCtm5r9DEoM1DFAAA5P5xUeJQCd5w8B6FwAzbquWctJTq0ZIAArjPjDT0EAOs8fAtC5AK2bmv0MSgzUMUAADk/nFR4lAJ3nDwHoXADNuq5Zy0lOrRkgACuM+MNPQQA6zx8C0LkArZua/QxKDNQxQAAOT+cVHiUAnecPAehcAM26rlnLSU6tGSAAK4z4w09BADrPHwLQuQCtm5r9DEoM1DFAAA5P5xUeJQCd5w8B6FwAzbquWctJTq0ZIAArjPjDT0EAOs8fAtC5AK2bmv0MSgzUMUAADk/nFR4lAJ3nDwHoXADNuq5Zy0lOrRkgACuM+MNPQQA6zx8C0LkArZua/QxKDNQxQAAOT+cVHiUAnecPAehcAM26rlnLSU6tGSAAK4z4w09BADrPHwLQuQCtm5r9DEoM1DFAAA5P5xUeJQCd5w8B6FwAzbquWctJTq0ZIAArjPjDT0EAOs8fAtC5AK2bmv0MSgzUMUAADk/nFR4lAJ3nDwHoXADNuq5Zy0lOrRkgACuM+MNPQQA6zx8C0LkArZua/QxKDNQxQAAOT+cVHiUAnecPAehcAM26rlnLSU6tGSAAK4z4w09BADrPHwLQuQCtm5r9DEoM1DLwlsPjyaOnTqBcxO2C11pe268jAATACYiBIRm4Fe8+9YCz/+EEyi6+MCR7WaSHAGj+TkAMDMnALj56eDx59NQJlIv46yHZIwCaLvAxgIGODFzE7VMPOPsfTqDM8Q3nQMdzwB2AjuFnsUDH0f5razLNn+kuvnB4PHn01AmUKb5HADrOIALQMXxDIv+QUKPzrdEU/3DqAWf/eydQbsRryxQ/JwAdZxAB6Bi+4XK+w0Vt89f2avg8dO8R5ZFTJlCm+Jjh33n+EIDOBTAo8g8KNTrnGvlGwFNO+QN7l318hQB0nj8EoHMBDJdzHi5eW3a+p/jygRnloRMmUOZ4jgB0nj8EoHMBsjdIx2eInzcDz51wxtn6HgmUOd5n+CeYPQQgQRHOu8EaoOqbm4GL+J17zCn/fKIEyhxfIwAJZg8BSFAEAyL3gFCfc6/Ps+WpeNWJZp1tX5ZAuRWPGf5J5g4BSFIIQ+bch4zXl5lxbwr0sjF9uv/15j+JZg4BSFSMzA3SsRng583Aj8pT8ZrTjT07LwmUKd7j6j/RzCEAiYpx3g3WAFXf7Az8iTF92gTKHP9MABLNHAKQqBgGRPYB4fjOm9GflTkeP+0IHHf3so8/NfyTzRsCkKwg591gDVD1zc7Ac2XNpjiID5S9d/1LKT9rsr6cWClD0JSzN2XHh9H1GLiIZ8oc3iK4kZwsd1XKHMvdlfVq6Lnqsl5VAG4SACeBJoCBDTCwj2+W2/G6RjNw2G3u/Mifd/zLKiQ34pHV4HQHYAONLyuojqvO6OXUMqd/Lbfiras1yDN7ojLHh8oUzxPexH1/1TsAvgTQsjnZy7DDwOkZ+HHZx/vPbDaf/OWUi/jTMsULhn/i4b+cOwQgeYFO3+AMERlj4DADL5SLuHHyqXkGT1A+Hq8pc/wPg38jc4UAbKRQhxuUBi4fDJyagSm+Vfbx4TOY081fQrkRry1zfKbM8R+G/4ZmCgHYULFO3eDsb4hioIaBfy5TfMzvD4gon47Xlyk+V6b4kcG/wVlCADZYNE26pklbg5NTM/DDMsfTZRcfXm59N7+sTrph2cUbyi5ulov4epnjpwb/hmfIqgLgxwBP3ZDsb+hhoAcDV9/tvnzt+4/LPn6/TPHBso93ls/Gw0nn+H0P685PbT1e9vGRMsdULuLzZR/fMfA3PPBffm74McAzKubLi+v/DUMMYAADGLgXA6veAfBjgEC8F4j+HRsYwAAG1mWAALgD4JYeBjCAAQwMyAABGLDoLHtdy5a3vDGAgYwMEAACwPwxgAEMYGBABgjAgEXPaKKOyRUSBjCAgXUZIAAEgPljAAMYwMCADBCAAYvOste1bHnLGwMYyMgAASAAzB8DGMAABgZkgAAMWPSMJuqYXCFhAAMYWJcBAkAAmD8GMIABDAzIAAEYsOgse13Llre8MYCBjAwQAALA/DGAAQxgYEAGCMCARc9ooo7JFRIGMICBdRkgAASA+WMAAxjAwIAMEIABi86y17VsecsbAxjIyAABIADMHwMYwAAGBmSAAAxY9Iwm6phcIWEAAxhYlwECQACYPwYwgAEMDMgAARiw6Cx7XcuWt7wxgIGMDBAAAsD8MYABDGBgQAYIwIBFz2iijskVEgYwgIF1GSAABID5YwADGMDAgAwQgAGLzrLXtWx5yxsDGMjIAAEgAMwfAxjAAAYGZIAADFj0jCbqmFwhYQADGFiXAQJAAJg/BjCAAQwMyAABGLDoLHtdy5a3vDGAgYwMEAACwPwxgAEMYGBABgjAgEXPaKKOyRUSBjCAgXUZIAAEgPljAAMYwMCADBCAAYvOste1bHnLGwMYyMgAASAAzB8DGMAABgZkgAAMWPSMJuqYXCFhAAMYWJcBAkAAmD8GMIABDAzIAAEYsOgse13Llre8MYCBjAwQAALA/DGAAQxgYEAGCMCARc9ooo7JFRIGMICBdRkgAASA+WMAAxjAwIAMEIABi86y17VsecsbAxjIyAABIADMHwMYwAAGBmSAAAxY9Iwm6phcIWEAAxhYlwECQACYPwYwgAEMDMgAARiw6Cx7XcuWt7wxgIGMDBAAAsD8MYABDGBgQAYIwIBFz2iijskVEgYwgIF1GSAABID5YwADGMDAgAwQgAGLzrLXtWx5yxsDGMjIAAEgAMwfAxjAAAYGZIAADFj0jCbqmFwhYQADGFiXAQJAAJg/BjCAAQwMyAABGLDoLHtdy5a3vDGAgYwMEAACwPwxgAEMYGBABgjAgEXPaKKOyRUSBjCAgXUZIAAEgPljAAMYwMCADBCAAYvOste1bHnLGwMYyMgAASAAzB8DGMAABgZkgAAMWPSMJuqYXCFhAAMYWJcBAkAAmD8GMIABDAzIAAEYsOgse13Llre8MYCBjAwQAALA/DGAAQxgYEAGCMCARc9ooo7JFRIGMICBdRkgAASA+WMAAxjAwIAMEIABi86y17VsecsbAxjIyAABIADMHwMYwAAGBmSAAAxY9Iwm6phcIWEAAxhYlwECQACYPwYwgAEMDMgAARiw6Cx7XcuWt7wxgIGMDBAAAsD8MYABDGBgQAYIwIBFz2iijskVEgYwgIF1GSAABID5YwADGMDAgAwQgAGLzrLXtWx5yxsDGMjIAAEgAMwfAxjAAAYGZIAADFj0jCbqmFwhYQADGFiXAQJAAJg/BjCAAQwMyAABGLDoLHtdy5a3vDGAgYwMEAACwPwxgAEMYGBABgjAgEXPaKKOyRUSBjCAgXUZIAAEgPljAAMYwMCADBCAAYvOste1bHnLGwMYyMgAASAAzB8DGMAABgZkgAAMWPSMJuqYXCFhAAMYWJcBAkAAmD8GMIABDAzIAAEYsOgse13Llre8MYCBjAwQAALA/DGAAQxgYEAGVhWAOd4IsgEhy2i+jskVGQYwgIGHYq3/ylPxKgJAADCAAQxgAAPdGXh+rdn/4vOUOZ5X+O6FZ/7MHwMYwMDYDPzgxcG81l/KFN8hAAQAAxjAAAYw0JGBKf5xrbn/4vOUXXxJ0TsWfWzjdcWj/hjAAAYWBqb4by8O5rX+UnbxUQJAADCAAQxgAAMdGbgZT6w19198njLHQ2WKnyt8x8K7AnAFgAEMYGBkBn744lBe+y9ljq8RAAKAAQxgAAMY6MBAj9v/d0Wj3IrHFL1D0Rn/yMbvteMfAxhYvvb/fPlsPHx3Hnf5s0zxtySABGAAAxjAAAZWZGAXf9Zl6P/ik5Yb8UiZ42cKv2Lh2a8rIAxgAAMjM/Cj5fvwfnEWd/t72cUfEQACgAEMYAADGDg5Ay+UKT7QbeC/0hOXXXxb4U9e+JGN12t3xYcBDGBgH3/4SjO467+Vq18Q9AwJIAEYwAAGMICBkzDwta6D/tCTL9+RWPbeIhj4JwGf+bv6wwAGRmbg64fmb5rHyhRPG4KGIAYwgAEMYKABAxdxO82ArzmQMsd8+XOKjHVkY/Xa8Y8BDGDgQRlYfunePt5ZM3PTrbn8EcEpvsoAGxjggwLk8zQfDGAAA1tj4Pmytav+exlImePxso+vlCmWn13cWiEcr5phAAMYwMDpGVhm5BRfLLfiTfeap5v+97K7fPvgJ8scXy9T/IQQECIMYAADGBiQgWXY/6Ast/nn+GLZx/vXHu7/H3YmS5qpBLFzAAAAAElFTkSuQmCC;" vertex="1" parent="1">
          <mxGeometry x="476" y="112" width="23" height="23" as="geometry" />
        </mxCell>
        <mxCell id="n9jPN7Psreh2ucEp5mYO-12" style="edgeStyle=orthogonalEdgeStyle;rounded=0;orthogonalLoop=1;jettySize=auto;html=1;exitX=1;exitY=0;exitDx=0;exitDy=0;entryX=1;entryY=0;entryDx=0;entryDy=0;" edge="1" parent="1">
          <mxGeometry relative="1" as="geometry">
            <mxPoint x="719" y="-25" as="sourcePoint" />
            <mxPoint x="717" as="targetPoint" />
          </mxGeometry>
        </mxCell>
        <mxCell id="n9jPN7Psreh2ucEp5mYO-10" style="edgeStyle=orthogonalEdgeStyle;rounded=0;orthogonalLoop=1;jettySize=auto;html=1;exitX=1;exitY=1;exitDx=0;exitDy=0;" edge="1" parent="1">
          <mxGeometry relative="1" as="geometry">
            <mxPoint x="717" y="332" as="sourcePoint" />
            <mxPoint x="428" y="-25" as="targetPoint" />
          </mxGeometry>
        </mxCell>
        <mxCell id="n9jPN7Psreh2ucEp5mYO-11" style="edgeStyle=orthogonalEdgeStyle;rounded=0;orthogonalLoop=1;jettySize=auto;html=1;exitX=1;exitY=1;exitDx=0;exitDy=0;entryX=0.998;entryY=0.942;entryDx=0;entryDy=0;entryPerimeter=0;" edge="1" parent="1">
          <mxGeometry relative="1" as="geometry">
            <mxPoint x="717" y="332" as="sourcePoint" />
            <mxPoint x="715.8299999999999" y="312.7439999999999" as="targetPoint" />
          </mxGeometry>
        </mxCell>
        <mxCell id="n9jPN7Psreh2ucEp5mYO-13" value="" style="strokeWidth=2;html=1;shape=mxgraph.flowchart.direct_data;whiteSpace=wrap;fillColor=none;strokeColor=light-dark(#000000,#0A0A0A);" vertex="1" parent="1">
          <mxGeometry x="459" y="105" width="100" height="37" as="geometry" />
        </mxCell>
        <mxCell id="n9jPN7Psreh2ucEp5mYO-14" value="User-Service" style="rounded=1;whiteSpace=wrap;html=1;absoluteArcSize=1;arcSize=14;strokeWidth=2;strokeColor=light-dark(#000000,#0A0A0A);fillColor=none;fontColor=light-dark(#000000,#0C0C0C);" vertex="1" parent="1">
          <mxGeometry x="273" y="14" width="110" height="54" as="geometry" />
        </mxCell>
        <mxCell id="n9jPN7Psreh2ucEp5mYO-15" value="AI-Service" style="rounded=1;whiteSpace=wrap;html=1;absoluteArcSize=1;arcSize=14;strokeWidth=2;strokeColor=light-dark(#000000,#0A0A0A);fillColor=none;fontColor=light-dark(#000000,#0C0C0C);" vertex="1" parent="1">
          <mxGeometry x="642" y="30" width="110" height="56" as="geometry" />
        </mxCell>
        <mxCell id="n9jPN7Psreh2ucEp5mYO-16" value="Activity-Service" style="rounded=1;whiteSpace=wrap;html=1;absoluteArcSize=1;arcSize=14;strokeWidth=2;strokeColor=light-dark(#000000,#0A0A0A);fillColor=none;fontColor=light-dark(#000000,#0C0C0C);" vertex="1" parent="1">
          <mxGeometry x="273" y="206" width="110" height="52" as="geometry" />
        </mxCell>
        <mxCell id="n9jPN7Psreh2ucEp5mYO-17" value="" style="endArrow=classic;html=1;rounded=0;exitX=0.5;exitY=0;exitDx=0;exitDy=0;entryX=0.5;entryY=1;entryDx=0;entryDy=0;strokeColor=light-dark(#000000,#020202);" edge="1" parent="1" source="n9jPN7Psreh2ucEp5mYO-16" target="n9jPN7Psreh2ucEp5mYO-14">
          <mxGeometry width="50" height="50" relative="1" as="geometry">
            <mxPoint x="456" y="165" as="sourcePoint" />
            <mxPoint x="506" y="115" as="targetPoint" />
          </mxGeometry>
        </mxCell>
        <mxCell id="n9jPN7Psreh2ucEp5mYO-18" value="" style="endArrow=classic;html=1;rounded=0;exitX=0.5;exitY=0;exitDx=0;exitDy=0;entryX=0;entryY=0.5;entryDx=0;entryDy=0;strokeColor=light-dark(#000000,#020202);entryPerimeter=0;" edge="1" parent="1" target="n9jPN7Psreh2ucEp5mYO-13">
          <mxGeometry width="50" height="50" relative="1" as="geometry">
            <mxPoint x="362" y="206" as="sourcePoint" />
            <mxPoint x="362" y="68" as="targetPoint" />
            <Array as="points">
              <mxPoint x="362" y="124" />
            </Array>
          </mxGeometry>
        </mxCell>
        <mxCell id="n9jPN7Psreh2ucEp5mYO-19" value="" style="endArrow=classic;html=1;rounded=0;exitX=1;exitY=0.5;exitDx=0;exitDy=0;entryX=0.5;entryY=1;entryDx=0;entryDy=0;strokeColor=light-dark(#000000,#020202);exitPerimeter=0;" edge="1" parent="1" source="n9jPN7Psreh2ucEp5mYO-13">
          <mxGeometry width="50" height="50" relative="1" as="geometry">
            <mxPoint x="696.5" y="224" as="sourcePoint" />
            <mxPoint x="696.5" y="86" as="targetPoint" />
            <Array as="points">
              <mxPoint x="697" y="120" />
            </Array>
          </mxGeometry>
        </mxCell>
        <mxCell id="n9jPN7Psreh2ucEp5mYO-21" value="" style="endArrow=classic;startArrow=classic;html=1;rounded=0;entryX=0.5;entryY=0;entryDx=0;entryDy=0;exitX=0.5;exitY=1;exitDx=0;exitDy=0;strokeColor=light-dark(#000000,#040404);" edge="1" parent="1" source="n9jPN7Psreh2ucEp5mYO-16" target="n9jPN7Psreh2ucEp5mYO-1">
          <mxGeometry width="50" height="50" relative="1" as="geometry">
            <mxPoint x="456" y="165" as="sourcePoint" />
            <mxPoint x="506" y="115" as="targetPoint" />
          </mxGeometry>
        </mxCell>
        <mxCell id="n9jPN7Psreh2ucEp5mYO-22" value="" style="endArrow=classic;startArrow=classic;html=1;rounded=0;entryX=0.5;entryY=0;entryDx=0;entryDy=0;exitX=0.5;exitY=1;exitDx=0;exitDy=0;strokeColor=light-dark(#000000,#040404);" edge="1" parent="1">
          <mxGeometry width="50" height="50" relative="1" as="geometry">
            <mxPoint x="327.71" y="-14" as="sourcePoint" />
            <mxPoint x="327.71" y="14" as="targetPoint" />
          </mxGeometry>
        </mxCell>
        <mxCell id="n9jPN7Psreh2ucEp5mYO-23" value="" style="endArrow=classic;startArrow=classic;html=1;rounded=0;entryX=0.5;entryY=0;entryDx=0;entryDy=0;strokeColor=light-dark(#000000,#040404);" edge="1" parent="1">
          <mxGeometry width="50" height="50" relative="1" as="geometry">
            <mxPoint x="701" y="-4" as="sourcePoint" />
            <mxPoint x="700.72" y="28.5" as="targetPoint" />
          </mxGeometry>
        </mxCell>
        <mxCell id="n9jPN7Psreh2ucEp5mYO-24" value="" style="endArrow=none;dashed=1;html=1;dashPattern=1 3;strokeWidth=2;rounded=0;strokeColor=light-dark(#000000,#000000);" edge="1" parent="1">
          <mxGeometry width="50" height="50" relative="1" as="geometry">
            <mxPoint x="812" y="-86" as="sourcePoint" />
            <mxPoint x="250" y="-86" as="targetPoint" />
          </mxGeometry>
        </mxCell>
        <mxCell id="n9jPN7Psreh2ucEp5mYO-25" value="" style="endArrow=none;dashed=1;html=1;dashPattern=1 3;strokeWidth=2;rounded=0;strokeColor=light-dark(#000000,#000000);" edge="1" parent="1">
          <mxGeometry width="50" height="50" relative="1" as="geometry">
            <mxPoint x="811" y="339" as="sourcePoint" />
            <mxPoint x="246" y="339" as="targetPoint" />
          </mxGeometry>
        </mxCell>
        <mxCell id="n9jPN7Psreh2ucEp5mYO-26" value="" style="endArrow=none;dashed=1;html=1;dashPattern=1 3;strokeWidth=2;rounded=0;strokeColor=light-dark(#000000,#000000);" edge="1" parent="1">
          <mxGeometry width="50" height="50" relative="1" as="geometry">
            <mxPoint x="812" y="-80" as="sourcePoint" />
            <mxPoint x="809" y="341" as="targetPoint" />
          </mxGeometry>
        </mxCell>
        <mxCell id="n9jPN7Psreh2ucEp5mYO-27" value="" style="endArrow=none;dashed=1;html=1;dashPattern=1 3;strokeWidth=2;rounded=0;strokeColor=light-dark(#000000,#000000);" edge="1" parent="1">
          <mxGeometry width="50" height="50" relative="1" as="geometry">
            <mxPoint x="248" y="-82" as="sourcePoint" />
            <mxPoint x="245" y="339" as="targetPoint" />
          </mxGeometry>
        </mxCell>
        <mxCell id="n9jPN7Psreh2ucEp5mYO-28" value="Gemini-Server" style="rounded=1;whiteSpace=wrap;html=1;absoluteArcSize=1;arcSize=14;strokeWidth=2;strokeColor=light-dark(#000000,#0A0A0A);fillColor=none;fontColor=light-dark(#000000,#0C0C0C);" vertex="1" parent="1">
          <mxGeometry x="898" y="-147" width="110" height="56" as="geometry" />
        </mxCell>
        <mxCell id="n9jPN7Psreh2ucEp5mYO-29" value="" style="endArrow=classic;html=1;rounded=0;exitX=1;exitY=0.25;exitDx=0;exitDy=0;entryX=0.5;entryY=1;entryDx=0;entryDy=0;strokeColor=light-dark(#000000,#020202);" edge="1" parent="1" source="n9jPN7Psreh2ucEp5mYO-15">
          <mxGeometry width="50" height="50" relative="1" as="geometry">
            <mxPoint x="822" y="-53" as="sourcePoint" />
            <mxPoint x="959.5" y="-91" as="targetPoint" />
            <Array as="points">
              <mxPoint x="960" y="44" />
            </Array>
          </mxGeometry>
        </mxCell>
        <mxCell id="n9jPN7Psreh2ucEp5mYO-30" value="" style="endArrow=none;html=1;rounded=0;strokeColor=light-dark(#000000,#000000);" edge="1" parent="1">
          <mxGeometry width="50" height="50" relative="1" as="geometry">
            <mxPoint x="234" y="351" as="sourcePoint" />
            <mxPoint x="236" y="-99" as="targetPoint" />
          </mxGeometry>
        </mxCell>
        <mxCell id="n9jPN7Psreh2ucEp5mYO-31" value="" style="endArrow=none;html=1;rounded=0;strokeColor=light-dark(#000000,#000000);" edge="1" parent="1">
          <mxGeometry width="50" height="50" relative="1" as="geometry">
            <mxPoint x="821" y="350" as="sourcePoint" />
            <mxPoint x="825" y="-102" as="targetPoint" />
          </mxGeometry>
        </mxCell>
        <mxCell id="n9jPN7Psreh2ucEp5mYO-32" value="" style="endArrow=none;html=1;rounded=0;strokeColor=light-dark(#000000,#000000);" edge="1" parent="1">
          <mxGeometry width="50" height="50" relative="1" as="geometry">
            <mxPoint x="825" y="-102" as="sourcePoint" />
            <mxPoint x="232" y="-99" as="targetPoint" />
          </mxGeometry>
        </mxCell>
        <mxCell id="n9jPN7Psreh2ucEp5mYO-33" value="" style="endArrow=none;html=1;rounded=0;strokeColor=light-dark(#000000,#000000);" edge="1" parent="1">
          <mxGeometry width="50" height="50" relative="1" as="geometry">
            <mxPoint x="821" y="351" as="sourcePoint" />
            <mxPoint x="228" y="351" as="targetPoint" />
          </mxGeometry>
        </mxCell>
      </root>
    </mxGraphModel>
  </diagram>
</mxfile>
